Coordinates
version=1
nRows=5
nColumns=40
inDegrees=yes

Units are S.I. units (second, meters, Newtons, ...)
If the header above contains a line with 'inDegrees', this indicates whether rotational values are in degrees (yes) or radians (no).

endheader
time	pelvis_tilt	pelvis_list	pelvis_rotation	pelvis_tx	pelvis_ty	pelvis_tz	hip_flexion_r	hip_adduction_r	hip_rotation_r	knee_angle_r	knee_angle_r_beta	ankle_angle_r	subtalar_angle_r	mtp_angle_r	hip_flexion_l	hip_adduction_l	hip_rotation_l	knee_angle_l	knee_angle_l_beta	ankle_angle_l	subtalar_angle_l	mtp_angle_l	lumbar_extension	lumbar_bending	lumbar_rotation	arm_flex_r	arm_add_r	arm_rot_r	elbow_flex_r	pro_sup_r	wrist_flex_r	wrist_dev_r	arm_flex_l	arm_add_l	arm_rot_l	elbow_flex_l	pro_sup_l	wrist_flex_l	wrist_dev_l
      2.60000000	      5.51249034	     -5.04573868	      0.70507151	     -0.24161898	      0.99587388	     -0.99468022	     40.29424940	      0.84801114	      0.31743299	     16.24750180	      0.28357240	    -15.78266956	      0.00000000	      0.00000000	     -2.30557652	     -1.43965247	     -3.29658735	      9.45833030	      0.16507901	     -5.31844915	      0.00000000	      0.00000000	     -4.27959919	      2.74883519	      4.50950031	     89.14740530	    -15.70462826	     36.13988177	     19.33489130	     86.00773294	      0.00000000	      0.00000000	     89.72395365	    -31.96063751	     39.95343658	     31.39454871	     86.35357972	      0.00000000	      0.00000000
      2.60500000	      5.52596734	     -5.07198960	      0.72119266	     -0.24181319	      0.99587052	     -0.99466820	     40.26929342	      0.85992283	      0.33314872	     16.19711436	      0.28269297	    -15.81742348	      0.00000000	      0.00000000	     -2.19695813	     -1.47647496	     -3.25830706	      9.67182515	      0.16880519	     -5.24929927	      0.00000000	      0.00000000	     -4.33067767	      2.76777427	      4.49139347	     89.17057777	    -15.71277477	     36.20434246	     19.37862550	     85.99068675	      0.00000000	      0.00000000	     89.72604117	    -31.88989048	     39.73299578	     31.36600017	     86.38223739	      0.00000000	      0.00000000
      2.61000000	      5.55714196	     -5.09796101	      0.69942333	     -0.24196944	      0.99586416	     -0.99455734	     40.22463114	      0.90163656	      0.38162809	     16.14370503	      0.28176081	    -15.81621077	      0.00000000	      0.00000000	     -2.17758106	     -1.51584754	     -3.22668539	      9.76352999	      0.17040574	     -5.21161318	      0.00000000	      0.00000000	     -4.38939629	      2.80686187	      4.50826763	     89.21078538	    -15.67659491	     36.27854376	     19.37468421	     85.91808905	      0.00000000	      0.00000000	     89.72498292	    -31.90350638	     39.73459712	     31.37811944	     86.39855726	      0.00000000	      0.00000000
      2.61500000	      5.56266931	     -5.10637705	      0.70848278	     -0.24214944	      0.99584063	     -0.99452243	     40.21769960	      0.90205337	      0.40871407	     16.11414108	      0.28124482	    -15.83911556	      0.00000000	      0.00000000	     -2.07576227	     -1.53567832	     -3.16464569	      9.94630436	      0.17359576	     -5.12428165	      0.00000000	      0.00000000	     -4.42553153	      2.80799194	      4.50317355	     89.22973267	    -15.68968918	     36.28423460	     19.42033737	     85.94100804	      0.00000000	      0.00000000	     89.72640332	    -31.89014105	     39.74649067	     31.41278381	     86.35617876	      0.00000000	      0.00000000
      2.62000000	      5.57824571	     -5.11150864	      0.68978952	     -0.24225514	      0.99582158	     -0.99444412	     40.21809353	      0.91223125	      0.39313565	     16.11392776	      0.28124109	    -15.80761553	      0.00000000	      0.00000000	     -2.02341015	     -1.54370109	     -3.21047915	     10.07944170	      0.17591944	     -5.05060165	      0.00000000	      0.00000000	     -4.46391130	      2.79790222	      4.53957700	     89.24688980	    -15.67406036	     36.14663079	     19.36977881	     85.95689656	      0.00000000	      0.00000000	     89.72918687	    -31.82568445	     39.66911872	     31.44969372	     86.34401587	      0.00000000	      0.00000000
